PathFileType	4	(X/Y/Z)	D:\TRACE\v60_Jaco2_6-2-23\JustArmDRS_Motion1_1-v60.trc
DataRate	CameraRate	NumFrames	NumMarkers	Units	OrigDataRate	OrigDataStartFrame	OrigNumFrames
100.00	100.00	      38	9	mm	100.00	856	      6844
Frame#	Time	front left toe			Front right toe			aft left toe			aft right toe			Arm			FL body			FR body			AL Body			AR Body			
		X1	Y1	Z1	X2	Y2	Z2	X3	Y3	Z3	X4	Y4	Z4	X5	Y5	Z5	X6	Y6	Z6	X7	Y7	Z7	X8	Y8	Z8	X9	Y9	Z9	

856	8.550	-165.28908	18.92105	-168.78798	242.52823	14.32079	-211.57071	-100.72676	22.76261	435.78604	303.31415	23.19835	425.86658	86.17850	1201.70886	-275.67886	-34.76390	572.76410	-318.00742	125.61344	569.00208	-333.36765	54.08479	593.04376	623.11859	210.27315	583.84668	609.83362	
857	8.560	-166.02119	18.96083	-168.67833	242.02641	14.51026	-211.52118	-101.26950	22.39320	436.00287	302.73306	23.08232	426.04065	85.67266	1201.71399	-275.19141	-35.26539	572.79944	-317.73373	124.04073	569.14276	-332.87424	53.56838	592.76520	623.36005	209.68742	583.61816	610.09723	
858	8.570	-166.29282	18.95332	-168.61584	241.21855	14.57233	-211.49556	-101.93072	22.29342	436.13660	301.55472	22.67027	426.03934	84.85753	1201.97510	-274.95471	-36.18475	573.06897	-317.43869	123.62247	569.48798	-333.25101	52.66062	592.33179	623.58588	209.20874	583.29596	610.32037	
859	8.580	-167.23648	19.23077	-168.49968	240.49026	14.55919	-211.34207	-102.48969	22.03680	436.20309	300.90268	22.50837	425.99316	84.05560	1202.08923	-274.27225	-36.68213	573.26617	-317.35657	122.50803	569.47809	-332.60965	52.22606	592.22491	623.68976	208.62404	583.02417	610.64587	
860	8.590	-167.93011	19.26257	-168.42357	239.79189	14.78639	-211.09273	-103.38155	21.86307	436.36679	300.64420	22.41523	426.07211	83.62556	1202.25366	-273.75671	-37.20130	573.41669	-317.19138	122.56745	569.81537	-332.34323	51.72477	592.04510	623.97791	207.83655	582.85626	610.95575	
861	8.600	-168.65799	19.42675	-168.31145	239.28813	15.16866	-210.95952	-104.09370	21.52083	436.54626	299.85699	22.24248	426.16681	82.95348	1202.42761	-273.18460	-38.23006	573.75464	-316.80899	121.97589	569.95825	-332.00647	51.25963	591.95416	625.07294	207.15160	582.57532	610.98328	
862	8.610	-169.44901	19.61980	-168.24481	238.56749	15.33074	-211.06332	-104.58156	21.15858	436.65857	298.60242	21.81650	426.24619	82.15102	1202.55212	-272.35202	-38.72266	573.69751	-316.60791	120.55074	570.31500	-331.60257	50.11772	591.58423	624.53467	206.51027	582.40332	611.16797	
863	8.620	-170.17567	19.73551	-168.26228	237.58488	15.39501	-211.09300	-105.22977	20.79384	436.67303	298.08411	21.69020	426.38803	81.38215	1202.94385	-272.17505	-39.84741	573.93860	-316.36243	119.75872	570.41174	-331.37222	49.46265	591.19025	624.74969	206.00623	582.03656	611.41119	
864	8.630	-170.80470	19.68196	-168.07289	236.83430	15.38120	-211.02280	-106.13798	20.82919	436.68179	297.55850	21.53632	426.47034	80.57135	1203.04944	-271.48697	-40.26583	573.98969	-315.82825	119.42944	570.81024	-331.44681	49.03110	590.94110	624.91992	205.14174	581.69568	611.64172	
865	8.640	-171.86075	19.72539	-167.88986	236.20329	15.44059	-210.74181	-106.78942	20.62393	436.62323	296.56085	21.22164	426.50418	79.98197	1203.21704	-270.91006	-41.16298	574.30664	-316.03906	118.85008	570.83960	-331.26025	48.43184	590.50146	625.27887	204.50043	581.39691	611.65009	
866	8.650	-172.65968	19.92105	-167.70045	235.15518	15.63920	-210.73236	-107.52981	20.16873	436.82535	296.01190	21.02027	426.77704	79.13499	1203.31726	-270.37811	-42.19125	574.64844	-315.64664	117.16399	570.92157	-330.73462	47.53677	590.29138	625.53772	203.92249	581.25446	612.16010	
867	8.660	-172.97290	19.95689	-167.64464	234.56740	15.84800	-210.75748	-108.06081	19.97421	436.99295	295.24210	20.74582	426.97690	78.12873	1203.51538	-269.80624	-42.86799	574.68866	-315.39194	116.32532	571.15466	-330.54105	46.69959	590.10358	625.65320	203.25711	580.85571	612.36060	
868	8.670	-173.79132	20.01988	-167.61116	234.00790	16.03340	-210.56650	-109.09338	19.66555	437.10889	294.57434	20.62820	427.08777	77.37647	1203.70422	-269.34253	-43.78339	574.95190	-314.92377	116.28005	571.53156	-330.61868	46.18910	589.94128	625.95508	202.80136	580.89069	612.67169	
869	8.680	-174.97870	20.43660	-167.39752	233.14574	16.26177	-210.48671	-109.72506	19.47440	437.29416	293.37909	20.14963	427.02798	76.29764	1203.65149	-268.66391	-44.64231	575.11499	-314.62555	114.63982	571.69232	-330.16580	45.73475	589.66266	626.31769	201.93358	580.55493	612.91473	
870	8.690	-175.55133	20.38485	-167.35109	232.22316	16.22783	-210.37593	-110.58765	19.23629	437.36792	293.12637	20.08352	427.17615	75.65288	1203.95203	-268.32700	-45.26644	575.33759	-314.44443	113.79086	571.72394	-329.98917	44.76150	589.23865	626.55438	201.20660	580.14960	612.91626	
871	8.700	-176.11441	20.35112	-167.25107	231.39268	16.53959	-210.15663	-111.39200	19.06911	437.52206	292.05737	19.81250	427.32361	74.65937	1204.06995	-267.86679	-46.38828	575.53522	-314.11118	114.00779	572.11255	-330.10550	44.16152	588.94647	626.79718	200.40146	579.74640	613.04742	
872	8.710	-177.53531	20.79870	-167.11481	230.53751	16.51766	-210.11473	-112.04276	18.84832	437.53088	290.89127	19.48665	427.26208	73.88885	1204.15320	-267.17987	-47.02716	575.56738	-313.81854	112.73720	572.04645	-329.46674	43.50378	588.67413	627.00787	199.16951	579.19415	613.26654	
873	8.720	-178.32771	20.78530	-167.06393	229.61505	16.57231	-210.17902	-112.75107	18.46785	437.63123	290.48785	19.42231	427.27020	73.16451	1204.31152	-266.67514	-48.29314	575.80841	-313.70200	111.04505	572.28394	-329.26541	42.97649	588.27643	627.33636	199.08026	579.11035	613.45807	
874	8.730	-178.58821	20.65541	-166.93544	228.46671	16.62018	-210.11284	-113.64816	18.28868	437.67850	289.78195	19.25257	427.36151	72.23621	1204.44666	-266.11172	-48.90916	575.85272	-313.29993	110.68449	572.55328	-329.51141	42.25104	588.04358	627.59930	198.70639	579.17462	613.78979	
875	8.740	-179.85507	21.02864	-166.61874	228.18015	16.86784	-209.85426	-114.35157	17.82386	437.86197	288.41733	18.83523	427.40738	71.33215	1204.70374	-265.50024	-50.33931	576.17889	-313.29129	109.39285	572.54889	-328.52957	41.58136	587.76007	627.38574	196.97621	578.16931	613.70001	
876	8.750	-180.86554	21.34740	-166.59904	227.11433	17.13982	-209.57872	-115.20665	17.49172	438.12115	287.69315	18.67460	427.53769	70.63982	1204.87378	-264.89728	-51.32684	576.48004	-312.93256	108.47900	572.83160	-328.43756	40.72121	587.47778	628.04144	196.65942	577.94867	614.50165	
877	8.760	-181.33430	21.36754	-166.66231	226.31549	17.16833	-209.61967	-116.20684	17.36868	438.20123	287.13089	18.51056	427.54645	69.72751	1205.11438	-264.21762	-52.04672	576.66357	-312.67963	107.19645	573.00854	-328.34503	39.85548	587.08386	628.37451	195.59222	577.35846	614.22528	
878	8.770	-182.38852	21.50821	-166.50699	225.21246	17.25725	-209.55804	-117.05056	17.42851	438.27576	285.82159	18.22823	427.55692	68.91211	1205.23962	-263.80484	-52.88477	576.82709	-312.36639	107.06827	573.29492	-328.31964	39.29533	586.79974	628.55194	195.22205	577.58051	614.53961	
879	8.780	-183.62309	21.62807	-166.47264	224.69127	17.35647	-209.50706	-117.81425	16.90786	438.20523	285.19049	17.94422	427.82809	67.85590	1205.37549	-263.17834	-53.60633	577.02594	-312.11829	105.56689	573.32697	-327.75687	38.41533	586.36444	628.76160	194.34926	577.12256	614.92847	
880	8.790	-184.25081	21.71552	-166.44846	223.26443	17.40903	-209.64616	-118.59563	16.65969	438.33386	284.56650	17.87098	428.01831	67.15167	1205.45349	-262.57715	-54.52038	577.30670	-311.85367	104.56162	573.43408	-327.58713	37.49590	586.03864	628.99316	193.43283	576.60059	615.13605	
881	8.800	-185.09132	21.76944	-166.20183	222.65742	17.70293	-209.29449	-119.74639	16.58614	438.34927	283.09909	17.47939	428.07755	65.98401	1205.66602	-262.00012	-55.54617	577.54572	-311.58771	104.11057	573.93652	-327.72357	36.54967	585.75098	629.32117	192.92787	576.54639	615.25299	
882	8.810	-186.06976	21.91333	-165.98698	221.78946	17.90208	-209.09258	-120.55527	16.28269	438.41736	282.83801	17.48692	428.19260	64.99536	1205.83423	-261.41669	-56.71460	577.74664	-311.40936	103.26875	574.09344	-327.43399	35.98210	585.43933	629.16522	191.47704	575.96198	615.40283	
883	8.820	-187.05099	22.09240	-165.89407	220.84111	17.87052	-209.19798	-121.31348	15.95472	438.67502	281.51184	17.34145	428.42526	64.15291	1205.94250	-260.68036	-57.98578	577.95721	-311.24481	101.71989	574.40656	-327.00998	34.78503	585.07861	629.68939	190.63342	575.72150	615.64539	
884	8.830	-187.81479	22.09101	-165.88838	220.08997	18.11299	-209.10909	-122.29761	15.82058	438.97812	280.52957	16.90033	428.37952	63.27093	1206.17639	-260.01917	-58.69818	578.16309	-311.07010	101.42799	574.47266	-326.92487	34.09997	584.73535	629.63397	189.73134	575.09015	615.86426	
885	8.840	-188.83313	22.29574	-165.91837	219.21013	18.30679	-209.01727	-122.99526	15.37740	439.04874	279.96121	16.70077	428.39066	62.30505	1206.31140	-259.55920	-59.69070	578.36707	-310.77533	99.85456	574.60046	-326.52649	33.04379	584.42627	630.28070	188.95615	575.00500	615.99878	
886	8.850	-190.05750	22.50522	-165.78217	218.12582	18.44700	-208.82851	-124.05504	15.08019	438.96735	278.70215	16.27669	428.44104	61.21152	1206.53992	-258.92642	-60.40990	578.54510	-310.49155	98.77148	574.70447	-326.49457	31.92936	583.94623	630.49274	187.64609	574.64667	616.40594	
887	8.860	-190.47020	22.52565	-165.66844	217.00674	18.54677	-208.82867	-125.03593	14.95675	439.12546	277.82251	16.04218	428.62262	60.22713	1206.73486	-258.26157	-61.30111	578.73199	-310.21405	98.44630	575.27881	-326.13605	31.02773	583.78369	630.76001	186.66426	574.09613	616.47943	
888	8.870	-191.45541	22.70112	-165.49986	216.32372	18.65800	-208.65842	-125.84811	14.58987	439.20392	276.99362	15.78730	428.74091	59.20331	1206.89844	-257.64194	-62.36646	578.98047	-309.91589	97.49185	575.38922	-325.86096	29.95937	583.46985	631.05969	186.12515	574.32831	617.09259	
889	8.880	-192.71292	22.95523	-165.24899	215.23438	18.76377	-208.65105	-126.87541	14.30352	439.23660	275.90134	15.49504	428.63721	58.06750	1207.03027	-257.12509	-63.33104	579.11823	-309.60214	95.93194	575.36914	-324.99469	29.15526	583.09503	631.23120	184.80200	573.84521	617.27386	
890	8.890	-193.29163	22.73118	-165.17270	214.37991	19.04268	-208.54538	-127.84637	14.43005	439.45752	274.94525	15.19054	428.74234	57.10622	1207.30566	-256.44620	-64.59032	579.33929	-309.41608	95.14298	575.95068	-325.67093	28.02859	582.95435	631.54596	183.91621	573.67822	617.37000	
891	8.900	-194.18404	22.90512	-165.19695	213.63942	19.28332	-208.16728	-128.72710	13.93168	439.40134	274.29105	15.03604	429.01178	55.95791	1207.39941	-255.77147	-65.46367	579.43958	-309.20795	94.27481	576.05396	-325.25116	27.22765	582.81616	631.77252	182.85880	573.50806	617.54144	
892	8.910	-195.70721	23.41353	-165.00305	212.51125	19.22116	-208.17386	-129.58607	13.48762	439.60001	272.84079	14.69201	429.06326	54.86668	1207.65137	-255.36407	-66.61674	579.60846	-308.83411	92.71023	576.14648	-324.74490	25.76501	582.45465	631.62830	181.66377	573.29492	617.82172	
893	8.920	-196.15277	23.21310	-164.95151	211.44585	19.33706	-208.17517	-130.76639	13.34799	439.70410	272.44980	14.67314	429.27774	53.76873	1207.79272	-255.00638	-67.47631	579.74286	-308.65021	92.13512	576.35693	-324.80399	25.11217	582.17096	632.33057	180.97372	572.83954	618.06750	
